<svg
	aria-hidden="true"
	xmlns="http://www.w3.org/2000/svg"
>
	<symbol id="pencil" viewBox="0 0 32 32">
		<path
			d="M27 0a5 5 0 0 1 4 8l-2 2-7-7 2-2c.836-.628 1.874-1 3-1zM2 23l-2 9 9-2 18.5-18.5-7-7L2 23zm20.362-11.638-14 14-1.724-1.724 14-14 1.724 1.724z"
		></path>
	</symbol>
	<symbol id="cross" viewBox="0 0 32 32">
		<path
			d="M31.708 25.708 22 16l9.708-9.708a1 1 0 0 0 0-1.414L27.122.292a1 1 0 0 0-1.414-.001L16 9.999 6.292.291a.998.998 0 0 0-1.414.001L.292 4.878a1 1 0 0 0 0 1.414L10 16 .292 25.708a.999.999 0 0 0 0 1.414l4.586 4.586a1 1 0 0 0 1.414 0L16 22l9.708 9.708a1 1 0 0 0 1.414 0l4.586-4.586a.999.999 0 0 0 0-1.414z"
		></path>
	</symbol>
	<symbol id="checkmark" viewBox="0 0 32 32">
		<path d="M27 4 12 19l-7-7-5 5 12 12L32 9z"></path>
	</symbol>
	<symbol id="done" viewBox="0 0 32 32">
		<path
			d="M12.42 28.678-.013 16.44l6.168-6.071 6.265 6.167L25.846 3.322l6.168 6.071L12.42 28.678zM3.372 16.441l9.048 8.905L28.628 9.393l-2.782-2.739L12.42 19.868l-6.265-6.167-2.782 2.739z"
		></path>
	</symbol>
</svg>