<?xml version="1.0" standalone="no"?>
<!DOCTYPE svg PUBLIC "-//W3C//DTD SVG 20010904//EN"
 "http://www.w3.org/TR/2001/REC-SVG-20010904/DTD/svg10.dtd">
<svg version="1.0" xmlns="http://www.w3.org/2000/svg"
 width="700.000000pt" height="700.000000pt" viewBox="0 0 700.000000 700.000000"
 preserveAspectRatio="xMidYMid meet">
<metadata>
Created by potrace 1.14, written by Peter Selinger 2001-2017
</metadata>
<g transform="translate(0.000000,700.000000) scale(0.100000,-0.100000)"
fill="#000000" stroke="none">
<path d="M740 6989 c-25 -4 -56 -11 -70 -14 -14 -3 -29 -7 -35 -9 -5 -1 -41
-14 -80 -29 -245 -94 -439 -308 -522 -572 l-28 -90 -2 -2755 -2 -2755 25 -95
c84 -319 310 -549 631 -642 l78 -23 2765 0 2765 0 78 23 c247 71 430 215 550
432 38 69 83 194 95 263 9 54 9 5475 0 5542 -14 103 -69 243 -134 341 -126
190 -310 315 -559 381 -40 10 -5498 13 -5555 2z m4728 -2392 c166 -167 302
-308 302 -313 0 -5 -609 -618 -1353 -1362 l-1354 -1353 -811 811 -811 812 157
156 c86 86 225 226 308 309 l152 153 501 -502 502 -502 1047 1047 c576 576
1049 1047 1052 1047 3 0 141 -137 308 -303z"/>
</g>
</svg>
